<svg width="405" height="64" viewBox="0 0 405 64" fill="none" xmlns="http://www.w3.org/2000/svg">
<path d="M380.255 28.0461V12.2136H372.167V28.0461H350.389L348.768 26.5298L325.301 4.59615L325.27 4.56544L320.949 0.335065V28.0461H312.857L292.633 8.25688H304.769L312.857 0.335065H288.597L280.506 8.25131L300.73 28.0405H260.487L272.166 8.24851L276.829 0.335065H227.909L232.579 8.24851L244.258 28.0461H213.433L216.387 20.0461L223.154 1.73123L223.665 0.335065H192.812L188.768 8.25131H212.152L210.091 13.8555L206.869 22.5759L204.851 28.0405H178.915L172.636 11.6272L168.323 0.335065L164.014 11.6272L157.734 28.0405H141.62V0.335065L133.531 8.25131V28.0461H121.395V8.25688L113.31 0.335065V28.0461H105.212V4.31135L97.1238 0.335065V28.0461H81.9568L75.5636 11.2921L71.2509 0L66.9412 11.2921L60.5479 28.0461H32.3632V12.2136H24.2603V28.0461H0V35.9595H24.2603V51.792H32.3518V35.9595H57.5168L49.9048 55.9386L55.5189 63.6649L66.122 35.9595H76.3798L86.9859 63.6649L92.6 55.9386L84.9765 35.9595H97.1238V63.6649L105.215 55.7487V35.9595H113.31V63.6649L121.401 55.7487V35.9595H133.537V55.7487L141.62 63.6649V35.9595H154.749L146.989 56.2737L152.606 64L163.337 35.9595H173.327L184.073 64L189.687 56.2737L181.935 35.9595H201.874L198.92 43.9623L192.153 62.2855L191.642 63.6649H221.128L225.175 55.7487H203.17L205.239 50.1445L208.461 41.4241L210.479 35.9595H246.467L230.119 63.6649H239.463L252.372 41.7899L265.279 63.6649H274.62L258.272 35.9595H300.722L280.497 55.7487L288.58 63.6649H312.84L304.752 55.7487H292.616L312.84 35.9595H320.932V63.6649L325.259 59.4513L348.777 37.4841L350.398 35.9679H372.175V51.8031H380.264V35.9707H404.538V28.0461H380.255ZM69.1531 28.0461L71.2538 22.5592L73.3516 28.0461H69.1531ZM166.368 28.0461L168.34 22.8942L170.313 28.0461H166.368ZM252.372 25.9435L241.926 8.24013H262.818L252.372 25.9435ZM329.038 44.9536V35.9595H338.676L329.038 44.9536ZM329.038 28.0321V19.0436L338.676 28.0517L329.038 28.0321Z" fill="black"/>
</svg>
