<svg width="121" height="44" viewBox="0 0 121 44" fill="none" xmlns="http://www.w3.org/2000/svg">
<rect width="121" height="44" rx="22" fill="#55ACEE"/>
<path d="M17.2784 17.3636H19.4091L23.1136 26.4091H23.25L26.9545 17.3636H29.0852V29H27.4148V20.5795H27.3068L23.875 28.983H22.4886L19.0568 20.5739H18.9489V29H17.2784V17.3636ZM34.0412 29.1932C33.4882 29.1932 32.9882 29.0909 32.5412 28.8864C32.0942 28.678 31.7401 28.3769 31.4787 27.983C31.2211 27.589 31.0923 27.1061 31.0923 26.5341C31.0923 26.0417 31.187 25.6364 31.3764 25.3182C31.5658 25 31.8215 24.7481 32.1435 24.5625C32.4654 24.3769 32.8253 24.2367 33.223 24.142C33.6207 24.0473 34.026 23.9754 34.4389 23.9261C34.9616 23.8655 35.3859 23.8163 35.7116 23.7784C36.0374 23.7367 36.2741 23.6705 36.4219 23.5795C36.5696 23.4886 36.6435 23.3409 36.6435 23.1364V23.0966C36.6435 22.6004 36.5033 22.2159 36.223 21.9432C35.9465 21.6705 35.5336 21.5341 34.9844 21.5341C34.4124 21.5341 33.9616 21.661 33.6321 21.9148C33.3063 22.1648 33.081 22.4432 32.956 22.75L31.3594 22.3864C31.5488 21.8561 31.8253 21.428 32.1889 21.1023C32.5563 20.7727 32.9787 20.5341 33.456 20.3864C33.9332 20.2348 34.4351 20.1591 34.9616 20.1591C35.3101 20.1591 35.6795 20.2008 36.0696 20.2841C36.4635 20.3636 36.831 20.5114 37.1719 20.7273C37.5166 20.9432 37.7988 21.2519 38.0185 21.6534C38.2382 22.0511 38.348 22.5682 38.348 23.2045V29H36.6889V27.8068H36.6207C36.5109 28.0265 36.3461 28.2424 36.1264 28.4545C35.9067 28.6667 35.6245 28.8428 35.2798 28.983C34.9351 29.1231 34.5223 29.1932 34.0412 29.1932ZM34.4105 27.8295C34.8802 27.8295 35.2817 27.7367 35.6151 27.5511C35.9522 27.3655 36.2079 27.1231 36.3821 26.8239C36.5601 26.5208 36.6491 26.197 36.6491 25.8523V24.7273C36.5885 24.7879 36.4711 24.8447 36.2969 24.8977C36.1264 24.947 35.9313 24.9905 35.7116 25.0284C35.492 25.0625 35.2779 25.0947 35.0696 25.125C34.8613 25.1515 34.687 25.1742 34.5469 25.1932C34.2173 25.2348 33.9162 25.3049 33.6435 25.4034C33.3745 25.5019 33.1586 25.6439 32.9957 25.8295C32.8366 26.0114 32.7571 26.2538 32.7571 26.5568C32.7571 26.9773 32.9124 27.2955 33.223 27.5114C33.5336 27.7235 33.9295 27.8295 34.4105 27.8295ZM43.8778 29.1705C43.1733 29.1705 42.5445 28.9905 41.9915 28.6307C41.4422 28.267 41.0104 27.75 40.696 27.0795C40.3854 26.4053 40.2301 25.5966 40.2301 24.6534C40.2301 23.7102 40.3873 22.9034 40.7017 22.233C41.0199 21.5625 41.4555 21.0492 42.0085 20.6932C42.5616 20.3371 43.1884 20.1591 43.8892 20.1591C44.4309 20.1591 44.8665 20.25 45.196 20.4318C45.5294 20.6098 45.7869 20.8182 45.9688 21.0568C46.1544 21.2955 46.2983 21.5057 46.4006 21.6875H46.5028V17.3636H48.2017V29H46.5426V27.642H46.4006C46.2983 27.8277 46.1506 28.0398 45.9574 28.2784C45.768 28.517 45.5066 28.7254 45.1733 28.9034C44.84 29.0814 44.4081 29.1705 43.8778 29.1705ZM44.2528 27.7216C44.7415 27.7216 45.1544 27.5928 45.4915 27.3352C45.8324 27.0739 46.09 26.7121 46.2642 26.25C46.4422 25.7879 46.5312 25.25 46.5312 24.6364C46.5312 24.0303 46.4441 23.5 46.2699 23.0455C46.0956 22.5909 45.84 22.2367 45.5028 21.983C45.1657 21.7292 44.7491 21.6023 44.2528 21.6023C43.7415 21.6023 43.3153 21.7348 42.9744 22C42.6335 22.2652 42.3759 22.6269 42.2017 23.0852C42.0313 23.5436 41.946 24.0606 41.946 24.6364C41.946 25.2197 42.0331 25.7443 42.2074 26.2102C42.3816 26.6761 42.6392 27.0455 42.9801 27.3182C43.3248 27.5871 43.7491 27.7216 44.2528 27.7216ZM54.3878 29.1761C53.5279 29.1761 52.7874 28.9924 52.1662 28.625C51.5488 28.2538 51.0715 27.733 50.7344 27.0625C50.401 26.3883 50.2344 25.5985 50.2344 24.6932C50.2344 23.7992 50.401 23.0114 50.7344 22.3295C51.0715 21.6477 51.5412 21.1155 52.1435 20.733C52.7495 20.3504 53.4579 20.1591 54.2685 20.1591C54.7609 20.1591 55.2382 20.2405 55.7003 20.4034C56.1624 20.5663 56.5772 20.822 56.9446 21.1705C57.312 21.5189 57.6018 21.9716 57.8139 22.5284C58.026 23.0814 58.1321 23.7538 58.1321 24.5455V25.1477H51.1946V23.875H56.4673C56.4673 23.428 56.3764 23.0322 56.1946 22.6875C56.0128 22.339 55.7571 22.0644 55.4276 21.8636C55.1018 21.6629 54.7192 21.5625 54.2798 21.5625C53.8026 21.5625 53.3859 21.6799 53.0298 21.9148C52.6776 22.1458 52.4048 22.4489 52.2116 22.8239C52.0223 23.1951 51.9276 23.5985 51.9276 24.0341V25.0284C51.9276 25.6117 52.0298 26.108 52.2344 26.517C52.4427 26.9261 52.7325 27.2386 53.1037 27.4545C53.4749 27.6667 53.9086 27.7727 54.4048 27.7727C54.7268 27.7727 55.0204 27.7273 55.2855 27.6364C55.5507 27.5417 55.7798 27.4015 55.973 27.2159C56.1662 27.0303 56.3139 26.8011 56.4162 26.5284L58.0241 26.8182C57.8954 27.2917 57.6643 27.7064 57.331 28.0625C57.0014 28.4148 56.5866 28.6894 56.0866 28.8864C55.5904 29.0795 55.0241 29.1761 54.3878 29.1761ZM64.2514 29V20.2727H65.9503V29H64.2514ZM65.1094 18.9261C64.8139 18.9261 64.5601 18.8277 64.348 18.6307C64.1397 18.4299 64.0355 18.1913 64.0355 17.9148C64.0355 17.6345 64.1397 17.3958 64.348 17.1989C64.5601 16.9981 64.8139 16.8977 65.1094 16.8977C65.4048 16.8977 65.6567 16.9981 65.8651 17.1989C66.0772 17.3958 66.1832 17.6345 66.1832 17.9148C66.1832 18.1913 66.0772 18.4299 65.8651 18.6307C65.6567 18.8277 65.4048 18.9261 65.1094 18.9261ZM69.9347 23.8182V29H68.2358V20.2727H69.8665V21.6932H69.9744C70.1752 21.2311 70.4896 20.8598 70.9176 20.5795C71.3494 20.2992 71.893 20.1591 72.5483 20.1591C73.143 20.1591 73.6638 20.2841 74.1108 20.5341C74.5578 20.7803 74.9044 21.1477 75.1506 21.6364C75.3968 22.125 75.5199 22.7292 75.5199 23.4489V29H73.821V23.6534C73.821 23.0208 73.6563 22.5265 73.3267 22.1705C72.9972 21.8106 72.5445 21.6307 71.9688 21.6307C71.5748 21.6307 71.2244 21.7159 70.9176 21.8864C70.6146 22.0568 70.3741 22.3068 70.196 22.6364C70.0218 22.9621 69.9347 23.3561 69.9347 23.8182Z" fill="white"/>
<g clip-path="url(#clip0_1_1124)">
<path d="M83 14H106V31H83V14Z" fill="#CF142B"/>
<path d="M83 14H106V25.3333H83V14Z" fill="#00247D"/>
<path d="M83 14H106V19.6667H83V14Z" fill="#FFCC00"/>
<path d="M95.5247 20.179L95.1917 20.8142L95.5622 21.0072L95.5247 20.179Z" fill="white"/>
<path d="M95.5248 20.1789L95.6133 20.886L95.1969 20.9447L95.5248 20.1789Z" fill="white"/>
<path d="M96.1105 20.7783L95.397 20.6637L95.3242 21.0735L96.1105 20.7783Z" fill="white"/>
<path d="M96.1104 20.7783L95.4564 21.0836L95.2727 20.7095L96.1104 20.7783Z" fill="white"/>
<path d="M94.7648 20.5461L95.2703 21.0523L95.575 20.7594L94.7648 20.5461Z" fill="white"/>
<path d="M94.7647 20.5462L95.4747 20.6748L95.3978 21.0868L94.7647 20.5462Z" fill="white"/>
<path d="M95.7141 21.5142L95.6043 20.8096L95.1865 20.8681L95.7141 21.5142Z" fill="white"/>
<path d="M95.7141 21.5146L95.2176 20.9957L95.5216 20.7078L95.7141 21.5146Z" fill="white"/>
<path d="M94.8817 21.3693L95.5277 21.0505L95.3406 20.6762L94.8817 21.3693Z" fill="white"/>
<path d="M94.8817 21.3694L95.2276 20.7443L95.6007 20.9417L94.8817 21.3694Z" fill="white"/>
<path d="M97.4474 20.8692L96.9151 21.3536L97.1972 21.6613L97.4474 20.8692Z" fill="white"/>
<path d="M97.4476 20.8695L97.2872 21.5651L96.8753 21.4786L97.4476 20.8695Z" fill="white"/>
<path d="M97.7897 21.6297L97.1612 21.2811L96.9499 21.6447L97.7897 21.6297Z" fill="white"/>
<path d="M97.7898 21.6296L97.0704 21.6985L97.0288 21.2825L97.7898 21.6296Z" fill="white"/>
<path d="M96.6069 20.9573L96.9068 21.6045L97.2934 21.4326L96.6069 20.9573Z" fill="white"/>
<path d="M96.6067 20.9572L97.2283 21.3189L97.0144 21.68L96.6067 20.9572Z" fill="white"/>
<path d="M97.1619 22.1875L97.3057 21.4892L96.891 21.4045L97.1619 22.1875Z" fill="white"/>
<path d="M97.162 22.1875L96.8758 21.5341L97.2638 21.3654L97.162 22.1875Z" fill="white"/>
<path d="M96.4306 21.7714L97.1487 21.6884L97.1036 21.2745L96.4306 21.7714Z" fill="white"/>
<path d="M96.4305 21.7715L96.9737 21.3007L97.2553 21.6107L96.4305 21.7715Z" fill="white"/>
<path d="M99.0146 22.1664L98.3473 22.4414L98.5064 22.8268L99.0146 22.1664Z" fill="white"/>
<path d="M99.0147 22.1666L98.6241 22.7666L98.2667 22.5452L99.0147 22.1666Z" fill="white"/>
<path d="M99.0733 22.9968L98.6029 22.4564L98.2796 22.7258L99.0733 22.9968Z" fill="white"/>
<path d="M99.0732 22.9968L98.3739 22.8173L98.4779 22.4129L99.0732 22.9968Z" fill="white"/>
<path d="M98.1948 21.9651L98.2527 22.6751L98.6747 22.6443L98.1948 21.9651Z" fill="white"/>
<path d="M98.1948 21.965L98.6531 22.5155L98.3278 22.7825L98.1948 21.965Z" fill="white"/>
<path d="M98.2897 23.3091L98.6661 22.7004L98.3073 22.4809L98.2897 23.3091Z" fill="white"/>
<path d="M98.2898 23.3091L98.248 22.5978L98.6696 22.5698L98.2898 23.3091Z" fill="white"/>
<path d="M97.7466 22.6711L98.45 22.8349L98.5514 22.4307L97.7466 22.6711Z" fill="white"/>
<path d="M97.7466 22.6712L98.4202 22.4116L98.5771 22.7978L97.7466 22.6712Z" fill="white"/>
<path d="M100.038 23.9134L99.3158 23.9467L99.3316 24.3628L100.038 23.9134Z" fill="white"/>
<path d="M100.038 23.9133L99.463 24.3456L99.2039 24.0168L100.038 23.9133Z" fill="white"/>
<path d="M99.8048 24.714L99.5503 24.0474L99.1532 24.1914L99.8048 24.714Z" fill="white"/>
<path d="M99.8048 24.7138L99.2102 24.3091L99.4481 23.9642L99.8048 24.7138Z" fill="white"/>
<path d="M99.3376 23.448L99.1454 24.1349L99.5526 24.2481L99.3376 23.448Z" fill="white"/>
<path d="M99.3376 23.448L99.577 24.1198L99.1786 24.2613L99.3376 23.448Z" fill="white"/>
<path d="M98.9601 24.7431L99.5248 24.2979L99.2638 23.9706L98.9601 24.7431Z" fill="white"/>
<path d="M98.9603 24.7432L99.1678 24.0605L99.5736 24.1763L98.9603 24.7432Z" fill="white"/>
<path d="M98.6716 23.9606L99.2752 24.3521L99.5107 24.0056L98.6716 23.9606Z" fill="white"/>
<path d="M98.6716 23.9603L99.3943 23.943L99.4075 24.3597L98.6716 23.9603Z" fill="white"/>
<path d="M88.963 23.9152L89.5342 24.3465L89.7955 24.0135L88.963 23.9152Z" fill="white"/>
<path d="M88.9628 23.9153L89.6841 23.9437L89.6652 24.3628L88.9628 23.9153Z" fill="white"/>
<path d="M89.6643 23.4465L89.4233 24.1221L89.8155 24.2613L89.6643 23.4465Z" fill="white"/>
<path d="M89.6648 23.4465L89.8496 24.1343L89.4468 24.2507L89.6648 23.4465Z" fill="white"/>
<path d="M89.1934 24.7152L89.7889 24.3068L89.5545 23.9641L89.1934 24.7152Z" fill="white"/>
<path d="M89.1929 24.715L89.4515 24.0476L89.846 24.1886L89.1929 24.715Z" fill="white"/>
<path d="M90.3283 23.9609L89.6054 23.9446L89.5916 24.3607L90.3283 23.9609Z" fill="white"/>
<path d="M90.3282 23.961L89.7239 24.3528L89.4889 24.0071L90.3282 23.961Z" fill="white"/>
<path d="M90.0384 24.7431L89.8322 24.0607L89.4256 24.1774L90.0384 24.7431Z" fill="white"/>
<path d="M90.0385 24.7432L89.4741 24.299L89.7363 23.971L90.0385 24.7432Z" fill="white"/>
<path d="M89.9863 22.1673L90.3737 22.7666L90.7331 22.5425L89.9863 22.1673Z" fill="white"/>
<path d="M89.9862 22.1677L90.6528 22.4394L90.491 22.8268L89.9862 22.1677Z" fill="white"/>
<path d="M90.8058 21.9646L90.3469 22.5174L90.6694 22.783L90.8058 21.9646Z" fill="white"/>
<path d="M90.806 21.9646L90.7448 22.6751L90.3247 22.6463L90.806 21.9646Z" fill="white"/>
<path d="M89.9264 22.9984L90.6262 22.8159L90.5244 22.4133L89.9264 22.9984Z" fill="white"/>
<path d="M89.9264 22.9981L90.3994 22.4571L90.7212 22.7239L89.9264 22.9981Z" fill="white"/>
<path d="M91.252 22.67L90.5807 22.4114L90.4224 22.8013L91.252 22.67Z" fill="white"/>
<path d="M91.2522 22.6699L90.5492 22.8382L90.4499 22.4313L91.2522 22.6699Z" fill="white"/>
<path d="M90.7089 23.3088L90.7534 22.5979L90.3302 22.5713L90.7089 23.3088Z" fill="white"/>
<path d="M90.7089 23.3084L90.3332 22.7014L90.6944 22.4809L90.7089 23.3084Z" fill="white"/>
<path d="M91.5534 20.8706L91.7111 21.5656L92.1247 21.4773L91.5534 20.8706Z" fill="white"/>
<path d="M91.5535 20.8706L92.0851 21.3528L91.8007 21.6618L91.5535 20.8706Z" fill="white"/>
<path d="M92.3937 20.9574L91.7716 21.3211L91.9837 21.6809L92.3937 20.9574Z" fill="white"/>
<path d="M92.3937 20.9576L92.0917 21.6053L91.7063 21.435L92.3937 20.9576Z" fill="white"/>
<path d="M91.2093 21.6313L91.9291 21.697L91.9724 21.2829L91.2093 21.6313Z" fill="white"/>
<path d="M91.2094 21.6314L91.84 21.282L92.0499 21.643L91.2094 21.6314Z" fill="white"/>
<path d="M92.5689 21.7714L92.0266 21.3009L91.7444 21.6118L92.5689 21.7714Z" fill="white"/>
<path d="M92.5688 21.7715L91.8508 21.6895L91.8967 21.275L92.5688 21.7715Z" fill="white"/>
<path d="M91.8371 22.1879L92.1238 21.5335L91.7376 21.3655L91.8371 22.1879Z" fill="white"/>
<path d="M91.837 22.1876L91.6953 21.4891L92.1087 21.4035L91.837 22.1876Z" fill="white"/>
<path d="M93.4769 20.1803L93.3839 20.8868L93.803 20.9432L93.4769 20.1803Z" fill="white"/>
<path d="M93.4769 20.1801L93.809 20.8126L93.4347 21.0072L93.4769 20.1801Z" fill="white"/>
<path d="M94.2363 20.5449L93.5258 20.6769L93.6002 21.0868L94.2363 20.5449Z" fill="white"/>
<path d="M94.2363 20.545L93.7279 21.0519L93.425 20.7619L94.2363 20.545Z" fill="white"/>
<path d="M92.8898 20.7796L93.5427 21.0844L93.7271 20.7088L92.8898 20.7796Z" fill="white"/>
<path d="M92.8898 20.7795L93.603 20.6631L93.6748 21.074L92.8898 20.7795Z" fill="white"/>
<path d="M94.1183 21.3694L93.7723 20.7442L93.3993 20.9414L94.1183 21.3694Z" fill="white"/>
<path d="M94.1182 21.3694L93.4722 21.0504L93.6592 20.6762L94.1182 21.3694Z" fill="white"/>
<path d="M93.2861 21.5144L93.7826 20.996L93.4779 20.7078L93.2861 21.5144Z" fill="white"/>
<path d="M93.2861 21.5144L93.3953 20.81L93.8135 20.869L93.2861 21.5144Z" fill="white"/>
</g>
<defs>
<clipPath id="clip0_1_1124">
<rect width="23" height="17" fill="white" transform="translate(83 14)"/>
</clipPath>
</defs>
</svg>
