<svg width="64" height="64" viewBox="0 0 64 64" fill="none" xmlns="http://www.w3.org/2000/svg">
<rect width="64" height="64" rx="32" fill="black" fill-opacity="0.5"/>
<path d="M51.3365 36.0344C51.1491 36.041 50.9617 36.0532 50.7743 36.0532H39.2967C38.5911 36.0532 38.5986 36.0531 38.6998 36.7512C38.8647 37.8841 39.3173 38.8446 40.2871 39.5164C41.6805 40.4825 43.95 40.5097 45.3096 39.5717C45.6789 39.3135 45.9843 38.9745 46.2026 38.5803C46.3366 38.3442 46.5183 38.2645 46.7835 38.2664C48.0954 38.2748 49.4016 38.2664 50.7097 38.272C51.1154 38.272 51.152 38.3161 51.0582 38.7059C50.7968 39.7947 50.1699 40.6736 49.4185 41.4692C48.0298 42.9459 46.2878 43.6834 44.3032 43.9101C42.4404 44.1238 40.617 43.9813 38.8816 43.2242C36.9925 42.4006 35.4567 41.1843 34.665 39.2081C34.1402 37.8963 33.9556 36.5226 33.9453 35.1124C33.9341 33.4754 34.113 31.8778 34.7783 30.3663C35.7959 28.0556 37.5725 26.5995 39.9779 25.9529C42.0989 25.3692 44.3516 25.4842 46.4022 26.2809C48.2294 26.9752 49.5065 28.2683 50.3911 29.9784C50.9038 30.9934 51.2096 32.1003 51.2906 33.2346C51.3009 33.2957 51.3163 33.3559 51.3365 33.4145V36.0344ZM42.6297 32.9694H44.3117C44.9338 32.9694 45.557 32.9694 46.1791 32.9694C46.3347 32.9694 46.5315 32.9975 46.4949 32.7305C46.3572 31.7091 46.0011 30.8124 45.125 30.1808C44.084 29.4312 42.9211 29.3159 41.7077 29.5099C41.0479 29.5985 40.4364 29.9041 39.9695 30.3785C39.4045 30.9805 39.0156 31.7259 38.845 32.5337C38.7635 32.8832 38.8628 32.9778 39.2002 32.975C40.3377 32.9628 41.4837 32.9694 42.6297 32.9694Z" fill="white"/>
<path d="M28.9829 30.8527C29.3314 31.0729 29.7203 31.2078 30.0642 31.4327C31.5503 32.4109 32.2587 33.8212 32.4377 35.5556C32.6064 37.1888 32.2756 38.7049 31.407 40.0946C30.3172 41.8402 28.7168 42.8119 26.7068 43.1652C25.685 43.3339 24.6503 43.4129 23.6146 43.4013C20.2479 43.3948 16.8821 43.4013 13.5154 43.4013C13.0019 43.4013 13 43.4013 13 42.8869V20.5154C13 20.0009 13 20 13.5126 20C17.1538 20 20.7945 20 24.4345 20C25.9225 20 27.3721 20.2043 28.7083 20.8995C30.5524 21.8591 31.5138 23.4014 31.6871 25.4666C31.7513 26.1603 31.7157 26.8595 31.5813 27.5431C31.3001 28.9055 30.5233 29.9128 29.3183 30.5987C29.2031 30.6652 29.0625 30.7009 28.9829 30.8527ZM21.3236 33.1371C20.1392 33.1371 19.1685 33.1484 18.1958 33.1306C17.8697 33.1249 17.7648 33.2243 17.7676 33.5541C17.7813 35.3238 17.7813 37.0936 17.7676 38.8633C17.7676 39.21 17.8716 39.3084 18.2146 39.3056C19.9087 39.2896 21.6038 39.3131 23.2989 39.2906C23.9679 39.2821 24.6435 39.2587 25.2994 39.0798C26.2889 38.8089 26.9589 38.2102 27.2531 37.2104C27.4077 36.6856 27.4115 36.1515 27.3796 35.6174C27.3206 34.6645 26.8521 33.9711 25.9891 33.5607C25.5795 33.3769 25.1433 33.2592 24.6969 33.2121C23.5031 33.0593 22.3056 33.1802 21.3236 33.1371ZM21.2814 24.1417C20.113 24.1417 19.1544 24.152 18.1958 24.1351C17.8679 24.1295 17.7648 24.241 17.7676 24.5671C17.7826 25.9745 17.7826 27.3819 17.7676 28.7893C17.7676 29.121 17.8697 29.2138 18.1949 29.211C19.9256 29.1969 21.6572 29.2157 23.3879 29.1979C24.0438 29.1913 24.7091 29.1444 25.3369 28.9121C25.8054 28.7378 26.2571 28.5288 26.5485 28.0856C27.5548 26.5611 26.7565 24.6467 24.9836 24.3066C23.6859 24.0536 22.3768 24.1763 21.2814 24.1379V24.1417Z" fill="white"/>
<path d="M42.5834 24.0758C41.0391 24.0758 39.4912 24.0655 37.9516 24.0823C37.5712 24.0823 37.4522 23.9605 37.4653 23.5867C37.4906 22.8773 37.4822 22.1671 37.4653 21.4577C37.4597 21.171 37.559 21.0576 37.8523 21.0576C41.0026 21.0632 44.1529 21.0632 47.3032 21.0576C47.5946 21.0576 47.6986 21.1672 47.693 21.4559C47.6799 22.153 47.693 22.8502 47.693 23.5473C47.693 24.0692 47.6883 24.0748 47.1785 24.0748C45.6468 24.0755 44.1151 24.0758 42.5834 24.0758Z" fill="white"/>
</svg>
