<svg width="64" height="64" viewBox="0 0 64 64" fill="none" xmlns="http://www.w3.org/2000/svg">
<rect width="64" height="64" rx="32" fill="black" fill-opacity="0.5"/>
<g clip-path="url(#clip0_439_387)">
<path d="M34.2715 30.4798C34.6109 29.4772 34.9745 28.5762 35.4836 27.7408C36.9077 25.3976 38.9189 23.9143 41.6417 23.5536C43.8745 23.2492 46.137 23.8338 47.9518 25.1841C49.7666 26.5345 50.9919 28.545 51.3693 30.7915C52.1008 35.1933 49.7391 39.3727 45.6986 40.8026C42.7853 41.835 39.9673 41.3621 37.2869 39.8946C36.8125 39.6319 36.8177 39.6231 36.713 40.1511C36.1597 42.933 35.6022 45.7131 35.0602 48.4967C34.9892 48.861 34.8429 49.0072 34.4603 49.0002C33.2941 48.9775 32.1279 48.9932 30.9609 48.9906C30.4354 48.9906 30.4146 48.9617 30.528 48.4425C31.3638 44.4875 32.2038 40.5344 33.0482 36.5829C33.09 36.4307 33.0969 36.2708 33.0684 36.1154C33.0399 35.96 32.9767 35.8133 32.8837 35.6863C31.9385 34.3109 31.0847 32.8734 30.328 31.3834C30.2856 31.2959 30.2778 31.1838 30.1445 31.1444C30.0865 32.0629 30.1566 32.9753 30.0579 33.8877C29.6424 37.6713 26.5031 40.9217 22.764 41.4006C17.9469 42.0136 13.6736 38.6731 13.0822 33.8151C13.0289 33.3524 13.0031 32.8869 13.0052 32.4211C12.9983 28.8818 12.9983 25.3425 13.0052 21.8032C13.0052 21.0965 13.0052 21.0939 13.6978 21.093C14.7367 21.093 15.7756 21.1071 16.8084 21.086C17.2231 21.0773 17.353 21.2261 17.3513 21.6429C17.3392 25.3276 17.3392 29.0122 17.3513 32.6969C17.3546 33.6519 17.6862 34.576 18.2892 35.3109C18.8923 36.0457 19.7293 36.5456 20.6567 36.7248C23.1276 37.2169 25.4911 35.2914 25.5049 32.7345C25.5257 29.0788 25.511 25.423 25.5119 21.7673C25.5119 21.0134 25.5119 21.0125 26.2391 21.0116C27.2615 21.0116 28.2849 21.0353 29.3064 21.0011C29.7878 20.9853 30.0112 21.136 30.1583 21.6202C31.0804 24.6428 32.4292 27.4694 34.0672 30.1584C34.1122 30.2442 34.1702 30.3266 34.2715 30.4798ZM42.9351 28.0946C41.4711 28.0622 40.4045 28.676 39.6115 29.8134C39.1805 30.4349 38.8641 31.1299 38.6773 31.865C38.4514 32.7407 38.267 33.6163 38.0315 34.4919C37.9449 34.801 38.0254 34.9648 38.267 35.1443C39.4254 36.005 40.6954 36.5759 42.1256 36.7826C44.5861 37.1328 47.0353 35.1451 47.186 32.6522C47.3349 30.1847 45.3618 28.1025 42.9351 28.0946Z" fill="white"/>
</g>
<defs>
<clipPath id="clip0_439_387">
<rect width="38.5" height="28" fill="white" transform="translate(13 21)"/>
</clipPath>
</defs>
</svg>
