<svg width="459" height="64" viewBox="0 0 459 64" fill="none" xmlns="http://www.w3.org/2000/svg">
<path d="M39.1053 64C11.7282 64 0 53.5974 0 31.9159V0.887817H15.9971V31.9159C15.9971 40.6222 18.4012 50.5867 39.1053 50.5867C59.8094 50.5867 62.2134 40.5435 62.2134 31.9159V0.887817H78.2105V31.9159C78.2105 53.5187 66.3925 64 39.1053 64Z" fill="black"/>
<path d="M160.443 14.3123H130.224V63.1125H114.227V14.3123H84.0076V0.887817H160.454V14.3123H160.443Z" fill="black"/>
<path d="M163.509 31.9156C163.509 11.2901 175.237 0 202.626 0C230.014 0 241.731 11.38 241.731 31.9156C241.731 52.4512 229.913 63.9996 202.626 63.9996C175.339 63.9996 163.509 52.6197 163.509 31.9156ZM225.734 31.9156C225.734 19.2886 219.331 13.4245 202.626 13.4245C185.921 13.4245 179.518 19.1988 179.518 31.9156C179.518 44.6324 186.011 50.5863 202.626 50.5863C219.241 50.5863 225.734 44.6324 225.734 31.9156Z" fill="black"/>
<path d="M345.184 63.1125H329.187V0.887817H345.184V63.1125Z" fill="black"/>
<path d="M458.569 50.6519V62.5598H443.37V50.6519H458.569Z" fill="black"/>
<path d="M375.46 49.8677L368.798 63.1125H351.195L383.279 0.887817H404.881L437.055 63.1125H419.362L412.7 49.8677L406.746 37.9597L394.119 12.7171L381.414 37.9597" fill="black"/>
<path d="M270.749 0.887817H319.639V63.1125H303.641V46.4863H270.749C256.616 46.4863 246.921 37.6003 246.921 23.7264C246.921 9.85248 256.616 0.887817 270.749 0.887817ZM275.197 33.0618H303.641V14.3123H275.197C270.4 14.3123 262.93 14.3123 262.93 23.7376C262.93 33.1629 270.4 33.073 275.197 33.073V33.0618Z" fill="black"/>
</svg>
